PathFileType	4	(X/Y/Z)	Patient4_TMGait_0pt3_03_right_30.trc.trc
DataRate	CameraRate	NumFrames	NumMarkers	Units	OrigDataRate	OrigDataStartFrame	OrigNumFrames
54.901960784314	54.901960784314	5	33	mm	54.901960784314	124	       141
Frame#	Time	Sacral			L.Shoulder			Chest			R.Shoulder			Neck			R.ASIS			L.ASIS			R.Thigh.Superior			R.Thigh.Lateral			R.Thigh.Inferior			R.Patella			L.Thigh.Superior			L.Thigh.Lateral			L.Thigh.Inferior			L.Patella			L.Shank.Superior			L.Shank.Lateral			L.Shank.Inferior			R.Shank.Superior			R.Shank.Lateral			R.Shank.Inferior			R.Heel			R.Midfoot.Superior			R.Midfoot.Lateral			R.Toe			L.Heel			L.Midfoot.Lateral			L.Midfoot.Superior			L.Toe			L.Elbow			L.Wrist			R.Elbow			R.Wrist			
		X1	Y1	Z1	X2	Y2	Z2	X3	Y3	Z3	X4	Y4	Z4	X5	Y5	Z5	X6	Y6	Z6	X7	Y7	Z7	X8	Y8	Z8	X9	Y9	Z9	X10	Y10	Z10	X11	Y11	Z11	X12	Y12	Z12	X13	Y13	Z13	X14	Y14	Z14	X15	Y15	Z15	X16	Y16	Z16	X17	Y17	Z17	X18	Y18	Z18	X19	Y19	Z19	X20	Y20	Z20	X21	Y21	Z21	X22	Y22	Z22	X23	Y23	Z23	X24	Y24	Z24	X25	Y25	Z25	X26	Y26	Z26	X27	Y27	Z27	X28	Y28	Z28	X29	Y29	Z29	X30	Y30	Z30	X31	Y31	Z31	X32	Y32	Z32	X33	Y33	Z33	

124	58.250357142857	695.295157269911	1007.137235485530	445.586432571510	929.119829179348	1427.990195960761	305.389602822839	985.314726912077	1359.378644217064	486.198826897864	867.934167817432	1438.921100241643	635.639651756047	870.393420804573	1491.641558496550	455.550126682869	897.073281291001	937.932033172599	606.232168788217	935.314350616819	956.568458091246	333.968491694810	964.518600359609	752.749925053169	581.915256438637	899.238565404883	633.658588364842	640.529832140091	990.056817435240	592.190241494627	566.464440147710	1011.640117033836	510.391298344872	579.030124170908	944.063276886490	730.644376499972	366.254341369575	847.102468765037	626.546719255238	291.023608451117	905.731168254437	539.877281103886	365.882549683574	892.579711331114	472.156067314855	374.133926416160	859.206701041069	403.881393245331	362.015524055935	762.347561919243	299.914951443201	302.179335993534	789.835576421595	184.845405859856	378.329053992434	994.433594296351	420.872077960671	588.069181140581	936.011597704021	308.836018422225	650.249452458454	1002.237236882002	220.570757189737	598.031836141167	900.140299533261	41.228887205242	570.469744632741	1065.437623023498	106.400044700758	606.972428270064	985.530382778559	36.123984585946	642.632039461434	1189.208347056465	66.318775283481	630.093261828640	645.550986425932	37.607885738126	412.157771284314	722.054380816058	35.114510027647	333.969287422328	805.311017273799	94.904557990330	365.333651939347	934.175712031387	41.787644686522	339.494304772188	1073.587521796312	1142.591875373480	147.965520053542	1333.626660805366	1132.924892484898	161.571815071004	691.312252433203	1136.263187601157	707.864470286486	640.381946392861	878.523633397457	714.556233510079	
125	58.268571428571	697.486106634216	1005.610682806858	449.100612592478	929.127959065587	1427.495316161740	309.976479283902	985.981668893596	1358.864228366852	490.573219287326	868.452597972758	1437.694346438398	640.304491488558	870.533748402089	1490.637444322225	460.287750230241	899.641281916091	936.464284521842	609.424961185988	937.717770751436	956.019797095293	337.352683890934	967.264489744786	750.964688974967	584.654229608145	900.566506561788	631.728152025229	641.776820953155	991.938060066913	590.802762236449	568.163907492306	1012.086208477732	508.507882386978	579.672147187787	945.174926749768	729.277145380863	368.748882754471	846.615690627216	626.169443791667	293.316779192203	904.258761234883	538.690539902172	367.626344017585	890.437409097472	470.915037184595	375.714579219281	856.416012867039	403.037181590978	363.430699974998	758.414253589286	300.157476766380	303.248233302980	785.152888131048	184.455684229198	378.818974449914	994.782579400526	418.499238632948	588.568041470230	935.640553392312	306.889161692856	650.449696572954	1000.506956888930	218.351371132475	597.517680464211	895.872824009301	41.344024970177	569.776325403131	1062.141211820368	104.500353012283	606.287478344892	980.778507578020	36.206156966015	642.505459754833	1185.016350769665	62.572646993488	630.224231472218	640.027442566710	37.437061114642	412.167939142794	716.580543207821	34.973752171946	334.058519283733	799.848825544463	94.843676177909	365.435720426788	928.754515972181	41.625655694656	339.489891773790	1075.790036527940	1144.005354530900	151.539872538426	1335.978571887973	1140.599907178425	164.539864486397	694.592523276021	1133.310708953318	712.628850423432	644.778401895076	875.421784939064	719.901418963075	
126	58.286785714286	699.782144395426	1004.256541457437	452.767350129184	929.299906743418	1427.143879400116	314.757629879837	986.821565742842	1358.460126707900	495.148676567801	869.122514384320	1436.574416695294	645.160651650410	870.817760044370	1489.764254932249	465.231375815492	902.417573471434	935.227430430605	612.786859543157	940.169007174116	955.607558597627	340.888800109645	970.582944358027	749.740067964774	587.066524579246	902.951696451365	630.293854068816	642.972956870110	994.686573848074	589.919755109694	569.605092845456	1013.508087919232	506.832137628192	580.205980381942	946.374302492737	727.993223135775	371.226066953820	846.130714389398	625.874353349137	295.756445117862	902.946347395741	537.591353277778	369.422196693860	888.549859746396	469.700089213961	377.348785597288	853.775182123783	402.273105207270	364.914432988107	754.495905742567	300.576739688919	304.438270411447	780.518721827580	184.164113048468	379.337871301549	995.704899921715	416.313951975637	588.936848178592	935.489709437040	305.372224024845	650.712841643069	998.387593146804	216.259361240262	596.851990951795	890.430048760365	41.602444576752	569.061888040267	1057.753726902057	102.786088521978	605.522562855258	974.906798742850	36.397382843850	642.313485758096	1179.771736807804	59.011232222333	630.215966612564	634.494192590449	37.351923160509	412.181530706810	711.122629874185	34.868525927348	334.173106579790	794.434294515697	94.813713078293	365.537466100830	923.370422197581	41.422938880648	339.472702677311	1077.597721077838	1145.190180784413	155.252670857134	1337.837399702020	1147.122040604012	167.539034283710	698.142896673292	1130.453794120459	717.965817696179	649.884647867873	872.385526195028	726.278483499092	
127	58.305000000000	702.132565240330	1003.155743542858	456.605434190024	929.673971153666	1426.987686947977	319.684801751914	987.837783562429	1358.207801306996	499.879517734338	869.969564302719	1435.647273869766	650.152865667808	871.266250730269	1489.088692586407	470.319627321771	905.345061577972	934.276539655237	616.305885003912	942.568712222467	955.388453983717	344.546512117320	974.264049055327	749.052590673484	589.177722357036	906.165675431013	629.368842701336	644.249548397265	997.989547954874	589.460245661867	570.868728460932	1015.622904576759	505.393914874139	580.744708837626	947.540679437495	726.872515319207	373.666040410290	845.590444956909	625.712723515524	298.303143736974	901.793217069626	536.635951553941	371.218033573015	886.938882661988	468.554544594846	378.959797436017	851.302543688057	401.641558717246	366.411758743656	750.607630325973	301.233940566478	305.727324032700	775.957586119529	184.035016115168	379.860728728530	997.012596372846	414.385001410153	589.284056667597	935.539004186554	304.253731055769	651.144488355835	996.039921402970	214.371370716936	596.165467629230	884.340715660550	41.893229148885	568.435249108206	1052.684019909395	101.332160053213	604.769765592642	968.479592849700	36.618682881136	642.116584186786	1173.965144444007	55.893139969067	630.088839001903	628.967197292544	37.474263378298	412.198080816558	705.689772219985	34.868834888938	334.311019962922	789.104301575698	94.840445834588	365.625611720362	918.021965084374	41.170354838813	339.441044216855	1079.031857640975	1146.172220424290	159.092258178327	1339.271154378554	1152.418169652258	170.599341112688	701.853830827563	1127.875000229439	723.783586158312	655.526887098680	869.608407832859	733.559719001145	
128	58.323214285714	704.486742048992	1002.357113522290	460.656386858050	930.239588993048	1427.062914721177	324.703137333484	989.018496141924	1358.137775166788	504.702468895572	871.020235401724	1434.972328909828	655.228273786502	871.882030166070	1488.659134532392	475.491540853878	908.377721931997	933.633812270645	619.952490452939	944.817284664225	955.404938073728	348.282498584342	978.071183757112	748.807625360585	591.069610361488	909.873545919387	628.901623000932	645.722559802165	1001.481575627679	589.296815376299	572.068847585675	1018.064669931532	504.182179334090	581.400088413154	948.609765599579	725.998173963998	376.052216892806	845.020203599787	625.718609530202	300.921811722810	900.892279928023	535.875070417222	372.967852896560	885.721916444654	467.509620677822	380.473968829196	849.098049629306	401.177178023006	367.873869428114	746.836565617420	302.193536924271	307.093127099142	771.533612016744	184.135606139534	380.360983318390	998.434693482177	412.737977083088	589.714469708736	935.646165405821	303.471101972518	651.800138890643	993.522696818448	212.733181223352	595.573506378596	878.002859685777	42.147945813514	567.962293301107	1047.240020119255	100.168166429205	604.101179290595	961.906211747858	36.817220549860	641.959544066467	1167.951274974883	53.361256207734	629.886941232559	623.476566786315	37.969941411949	412.215792370763	700.297281266659	35.072403523015	334.466491451257	783.909416696023	94.956946621190	365.683425558030	912.703122020526	40.858451265670	339.394310691200	1080.095267915191	1146.967185458943	163.062971345585	1340.317969581289	1156.399893300191	173.761420698082	705.653436922533	1125.702533912129	729.991734419155	661.552703181553	867.231569156594	741.588029637222	
